<?xml version="1.0" encoding="utf-8"?>
<!-- Generator: Adobe Illustrator 19.0.0, SVG Export Plug-In . SVG Version: 6.00 Build 0)  -->
<svg version="1.1" id="图层_1" xmlns="http://www.w3.org/2000/svg" xmlns:xlink="http://www.w3.org/1999/xlink" x="0px" y="0px"
	 viewBox="76 -76 200 200" style="enable-background:new 76 -76 200 200;" xml:space="preserve">
<style type="text/css">
	.st0{fill:url(#Shape_3_);}
	.st1{fill:url(#Shape_4_);}
	.st2{fill:url(#Shape_5_);}
	.st3{fill:url(#Combined-Shape_3_);}
	.st4{fill:#FFFFFF;}
	.st5{fill:url(#Combined-Shape_4_);}
</style>
<title>Group 28 Copy 5</title>
<desc>Created with Sketch.</desc>
<g id="Page-1">
	<g id="logo" transform="translate(-20.000000, -20.000000)">
		<g id="Group-28-Copy-5" transform="translate(20.000000, 20.000000)">
			<g id="Group-27-Copy-3">
				<g id="Group-25">
					<g id="_x32_">
						
							<linearGradient id="Shape_3_" gradientUnits="userSpaceOnUse" x1="151.8758" y1="48.1015" x2="152.3367" y2="47.7229" gradientTransform="matrix(147.7263 0 0 -198.7057 -22301.7402 9538.5146)">
							<stop  offset="0" style="stop-color:#4285EB"/>
							<stop  offset="1" style="stop-color:#2EC7FF"/>
						</linearGradient>
						<path id="Shape" class="st0" d="M167.6-71.8L80.2,15.5c-4.7,4.7-4.7,12.3,0,17l87.4,87.3c4.7,4.7,12.3,4.7,17,0l36.6-36.6
							c4.2-4.2,4.2-11,0-15.2c-4.2-4.2-11-4.2-15.2,0l-27.8,27.8c-1.2,1.2-2.9,1.2-4.1,0L104.3,26c-1.2-1.2-1.2-2.9,0-4.1l69.8-69.7
							c1.2-1.2,2.9-1.2,4.1,0L206-20.1c4.2,4.2,11,4.2,15.2,0c4.2-4.2,4.2-11,0-15.2l-36.6-36.6C179.9-76.5,172.3-76.5,167.6-71.8z"
							/>
						
							<linearGradient id="Shape_4_" gradientUnits="userSpaceOnUse" x1="152.0783" y1="48.3974" x2="151.9223" y2="47.3128" gradientTransform="matrix(147.7263 0 0 -198.7057 -22301.7402 9538.5146)">
							<stop  offset="0" style="stop-color:#29CDFF"/>
							<stop  offset="0.3786" style="stop-color:#148EFF"/>
							<stop  offset="1" style="stop-color:#0A60FF"/>
						</linearGradient>
						<path id="Shape_1_" class="st1" d="M167.6-71.8L80.2,15.5c-4.7,4.7-4.7,12.3,0,17l87.4,87.3c4.7,4.7,12.3,4.7,17,0l36.6-36.6
							c4.2-4.2,4.2-11,0-15.2c-4.2-4.2-11-4.2-15.2,0l-27.8,27.8c-1.2,1.2-2.9,1.2-4.1,0L104.3,26c-1.2-1.2-1.2-2.9,0-4.1l69.8-69.7
							c2.9-2.5,7.7-7.6,14.6-8.8c5.2-0.9,10.9,1.1,17,5.8c-4.1-4.1-11.2-11.2-21.2-21.1C179.9-76.5,172.3-76.5,167.6-71.8z"/>
					</g>
					
						<linearGradient id="Shape_5_" gradientUnits="userSpaceOnUse" x1="151.1405" y1="49.116" x2="150.6108" y2="47.8123" gradientTransform="matrix(49.2049 0 0 -77.4363 -7176.8667 3778.5142)">
						<stop  offset="0" style="stop-color:#29CDFF"/>
						<stop  offset="0.3786" style="stop-color:#148EFF"/>
						<stop  offset="1" style="stop-color:#0A60FF"/>
					</linearGradient>
					<path id="Shape_2_" class="st2" d="M229.7,59.9c4.2,4.2,11,4.2,15.2,0l27-27c4.7-4.7,4.7-12.3,0-17l-27.3-27.2
						c-4.2-4.2-11-4.2-15.3,0c-4.2,4.2-4.2,11,0,15.2l18.4,18.4c1.2,1.2,1.2,2.9,0,4.1l-18.2,18.2C225.5,48.8,225.5,55.6,229.7,59.9
						z"/>
				</g>
				
					<linearGradient id="Combined-Shape_3_" gradientUnits="userSpaceOnUse" x1="151.3669" y1="50.8275" x2="150.6035" y2="47.7762" gradientTransform="matrix(47.2004 0 0 -47.1616 -6945.5396 2340.6113)">
					<stop  offset="0" style="stop-color:#29CDFF"/>
					<stop  offset="0.3786" style="stop-color:#148EFF"/>
					<stop  offset="1" style="stop-color:#0A60FF"/>
				</linearGradient>
				<ellipse id="Combined-Shape" class="st3" cx="178.7" cy="24.6" rx="47.8" ry="47.8"/>
			</g>
		</g>
	</g>
</g>
<ellipse id="Combined-Shape_1_" class="st4" cx="178.7" cy="24.6" rx="24.9" ry="24.9"/>
<path class="st4" d="M226.3,63c1.4,34.3,7.7,53.7,7.7,53.7"/>
<linearGradient id="Combined-Shape_4_" gradientUnits="userSpaceOnUse" x1="173.5189" y1="24.9921" x2="183.9308" y2="24.9921">
	<stop  offset="0" style="stop-color:#29CDFF"/>
	<stop  offset="0.3786" style="stop-color:#148EFF"/>
	<stop  offset="1" style="stop-color:#0A60FF"/>
</linearGradient>
<ellipse id="Combined-Shape_2_" class="st5" cx="178.7" cy="25" rx="5.2" ry="5.2"/>
</svg>
